<svg xmlns="http://www.w3.org/2000/svg" width="2048" height="1024" viewBox="0 0 2048 1024">
  <defs>
    <linearGradient id="skyGradient" x1="0" x2="0" y1="0" y2="1">
      <stop offset="0%" stop-color="#1c4b8f" />
      <stop offset="55%" stop-color="#5d8fc6" />
      <stop offset="70%" stop-color="#c6a483" />
      <stop offset="100%" stop-color="#4a352b" />
    </linearGradient>
    <radialGradient id="sunGlow" cx="72%" cy="28%" r="28%">
      <stop offset="0%" stop-color="#ffe6b6" stop-opacity="0.95" />
      <stop offset="45%" stop-color="#ffd29a" stop-opacity="0.6" />
      <stop offset="100%" stop-color="#ffb87a" stop-opacity="0" />
    </radialGradient>
    <linearGradient id="haze" x1="0" x2="0" y1="0" y2="1">
      <stop offset="0%" stop-color="#fff0d9" stop-opacity="0" />
      <stop offset="40%" stop-color="#ffe1c4" stop-opacity="0.4" />
      <stop offset="100%" stop-color="#2b1c18" stop-opacity="0" />
    </linearGradient>
  </defs>
  <rect width="2048" height="1024" fill="url(#skyGradient)" />
  <rect y="360" width="2048" height="300" fill="url(#haze)" />
  <circle cx="1475" cy="285" r="320" fill="url(#sunGlow)" />
  <g opacity="0.12" fill="#fff5e1">
    <circle cx="110" cy="120" r="2" />
    <circle cx="340" cy="180" r="2.5" />
    <circle cx="590" cy="95" r="1.8" />
    <circle cx="860" cy="165" r="2" />
    <circle cx="1180" cy="120" r="2.2" />
    <circle cx="1440" cy="190" r="1.6" />
    <circle cx="1710" cy="130" r="2.4" />
    <circle cx="1970" cy="170" r="2" />
  </g>
  <g opacity="0.18" stroke="#f9e4cf" stroke-width="3">
    <path d="M0 570 C140 430 300 430 440 570" fill="none" />
    <path d="M440 570 C580 430 740 430 880 570" fill="none" />
    <path d="M880 570 C1020 430 1180 430 1320 570" fill="none" />
    <path d="M1320 570 C1460 430 1620 430 1760 570" fill="none" />
    <path d="M1760 570 C1900 430 2060 430 2200 570" fill="none" />
  </g>
</svg>
